<svg width="174" height="34" viewBox="0 0 174 34" fill="none" xmlns="http://www.w3.org/2000/svg">
<path d="M5.45909 20.1432C5.0148 20.5501 4.44664 20.7536 3.75462 20.7536C2.89835 20.7536 2.22517 20.4787 1.7351 19.9289C1.24503 19.3764 1 18.6192 1 17.657C1 16.6168 1.27869 15.815 1.83608 15.2518C2.32076 14.7613 2.93739 14.516 3.68596 14.516C4.68764 14.516 5.42005 14.8448 5.88319 15.5024C6.139 15.8716 6.27632 16.2422 6.29517 16.6141H5.05115C4.97037 16.3284 4.8667 16.1128 4.74014 15.9673C4.51396 15.7086 4.17872 15.5792 3.73443 15.5792C3.28205 15.5792 2.92527 15.7625 2.66408 16.129C2.40289 16.4928 2.2723 17.0089 2.2723 17.6773C2.2723 18.3456 2.40962 18.8469 2.68428 19.1811C2.96162 19.5125 3.31302 19.6783 3.73846 19.6783C4.17468 19.6783 4.50723 19.5355 4.73611 19.2498C4.86266 19.0962 4.96768 18.8657 5.05115 18.5585H6.28305C6.17535 19.208 5.90069 19.7362 5.45909 20.1432Z" fill="black"/>
<path d="M9.51654 18.2513H8.23213V20.5878H7.01638V14.6292H9.9366C10.354 14.6373 10.6744 14.6885 10.8979 14.7828C11.1241 14.8772 11.3153 15.016 11.4714 15.1992C11.6007 15.3501 11.703 15.5172 11.7784 15.7005C11.8538 15.8837 11.8915 16.0926 11.8915 16.3271C11.8915 16.61 11.8201 16.889 11.6774 17.1639C11.5347 17.4361 11.2991 17.6287 10.9706 17.7419C11.2452 17.8524 11.4391 18.0101 11.5522 18.2149C11.668 18.417 11.7259 18.727 11.7259 19.1447V19.5449C11.7259 19.8171 11.7367 20.0017 11.7582 20.0987C11.7905 20.2523 11.8659 20.3655 11.9844 20.4383V20.5878H10.6152C10.5775 20.4558 10.5505 20.3493 10.5344 20.2685C10.5021 20.1014 10.4846 19.9303 10.4819 19.7551L10.4738 19.2013C10.4684 18.8213 10.3984 18.5679 10.2638 18.4413C10.1318 18.3146 9.88275 18.2513 9.51654 18.2513ZM10.2718 17.1679C10.5196 17.0547 10.6434 16.831 10.6434 16.4968C10.6434 16.1357 10.5236 15.8932 10.284 15.7692C10.1493 15.6991 9.94737 15.6641 9.6781 15.6641H8.23213V17.2649H9.64175C9.92179 17.2649 10.1318 17.2326 10.2718 17.1679Z" fill="black"/>
<path d="M16.8618 17.9845H13.9698V19.5166H17.2657V20.5878H12.7541V14.6292H17.1203V15.6843H13.9698V16.9496H16.8618V17.9845Z" fill="black"/>
<path d="M21.4726 19.363H19.2794L18.8674 20.5878H17.5668L19.6914 14.6292H21.0969L23.2053 20.5878H21.8563L21.4726 19.363ZM21.1252 18.3362L20.382 15.9915L19.6146 18.3362H21.1252Z" fill="black"/>
<path d="M27.4284 14.6292V15.6843H25.6471V20.5878H24.395V15.6843H22.6058V14.6292H27.4284Z" fill="black"/>
<path d="M27.8143 14.6292H29.0503V20.5878H27.8143V14.6292Z" fill="black"/>
<path d="M34.7799 20.5878H33.5359L31.1044 16.3554V20.5878H29.9452V14.6292H31.2498L33.6207 18.7889V14.6292H34.7799V20.5878Z" fill="black"/>
<path d="M39.3463 20.4423C39.0177 20.6444 38.6138 20.7455 38.1345 20.7455C37.3456 20.7455 36.6993 20.472 36.1958 19.9249C35.6707 19.3751 35.4082 18.6232 35.4082 17.6692C35.4082 16.7044 35.6734 15.9309 36.2039 15.3488C36.7343 14.7667 37.4358 14.4756 38.3082 14.4756C39.0649 14.4756 39.6721 14.6683 40.1298 15.0537C40.5903 15.4364 40.8542 15.9147 40.9215 16.4888H39.6977C39.6034 16.0818 39.3732 15.7975 39.007 15.6358C38.8023 15.5469 38.5748 15.5024 38.3244 15.5024C37.8451 15.5024 37.4506 15.6843 37.1409 16.0481C36.834 16.4093 36.6805 16.9536 36.6805 17.6813C36.6805 18.4143 36.8474 18.9331 37.1813 19.2377C37.5152 19.5422 37.8949 19.6945 38.3203 19.6945C38.7377 19.6945 39.0797 19.5745 39.3463 19.3347C39.6128 19.0921 39.7771 18.7755 39.839 18.3847H38.4617V17.3902H40.9417V20.5878H40.1177L39.9925 19.844C39.7529 20.127 39.5374 20.3264 39.3463 20.4423Z" fill="black"/>
<path d="M29.468 22.3075H26.4831V23.6779H29.0964V24.7128H26.4831V27.211H25.2472V21.2605H29.468V22.3075Z" fill="black"/>
<path d="M32.6066 27.3768C31.7557 27.3768 31.1054 27.145 30.6558 26.6814C30.0526 26.1128 29.751 25.2935 29.751 24.2236C29.751 23.1321 30.0526 22.3129 30.6558 21.7658C31.1054 21.3022 31.7557 21.0705 32.6066 21.0705C33.4575 21.0705 34.1078 21.3022 34.5575 21.7658C35.1579 22.3129 35.4582 23.1321 35.4582 24.2236C35.4582 25.2935 35.1579 26.1128 34.5575 26.6814C34.1078 27.145 33.4575 27.3768 32.6066 27.3768ZM33.782 25.7759C34.0701 25.4121 34.2141 24.8947 34.2141 24.2236C34.2141 23.5553 34.0687 23.0392 33.7779 22.6753C33.4898 22.3088 33.0994 22.1256 32.6066 22.1256C32.1139 22.1256 31.7207 22.3075 31.4272 22.6713C31.1337 23.0351 30.987 23.5526 30.987 24.2236C30.987 24.8947 31.1337 25.4121 31.4272 25.7759C31.7207 26.1398 32.1139 26.3217 32.6066 26.3217C33.0994 26.3217 33.4912 26.1398 33.782 25.7759Z" fill="black"/>
<path d="M38.6089 24.8745H37.3245V27.211H36.1088V21.2524H39.029C39.4464 21.2605 39.7668 21.3117 39.9903 21.406C40.2165 21.5003 40.4077 21.6391 40.5638 21.8224C40.6931 21.9733 40.7954 22.1404 40.8708 22.3236C40.9462 22.5069 40.9839 22.7158 40.9839 22.9502C40.9839 23.2332 40.9125 23.5121 40.7698 23.787C40.6271 24.0592 40.3915 24.2519 40.063 24.3651C40.3376 24.4756 40.5315 24.6333 40.6446 24.8381C40.7604 25.0402 40.8183 25.3501 40.8183 25.7678V26.168C40.8183 26.4402 40.8291 26.6248 40.8506 26.7219C40.8829 26.8755 40.9583 26.9887 41.0768 27.0614V27.211H39.7076C39.6699 27.079 39.6429 26.9725 39.6268 26.8917C39.5945 26.7246 39.577 26.5534 39.5743 26.3783L39.5662 25.8244C39.5608 25.4444 39.4908 25.1911 39.3562 25.0644C39.2242 24.9378 38.9751 24.8745 38.6089 24.8745ZM39.3642 23.7911C39.612 23.6779 39.7358 23.4542 39.7358 23.12C39.7358 22.7589 39.616 22.5163 39.3764 22.3924C39.2417 22.3223 39.0398 22.2873 38.7705 22.2873H37.3245V23.8881H38.7341C39.0142 23.8881 39.2242 23.8557 39.3642 23.7911Z" fill="black"/>
<path d="M5.40255 31.2309H2.5106V32.763H5.80645V33.8343H1.29485V27.8756H5.66104V28.9307H2.5106V30.196H5.40255V31.2309Z" fill="black"/>
<path d="M7.41851 33.8343H6.25931V27.8756H8.06879L9.15125 32.5609L10.2256 27.8756H12.0149V33.8343H10.8557V29.8039C10.8557 29.688 10.8571 29.5263 10.8598 29.3188C10.8625 29.1086 10.8638 28.9469 10.8638 28.8337L9.73691 33.8343H8.52924L7.41043 28.8337C7.41043 28.9469 7.41178 29.1086 7.41447 29.3188C7.41716 29.5263 7.41851 29.688 7.41851 29.8039V33.8343Z" fill="black"/>
<path d="M15.3072 34C14.4563 34 13.8061 33.7682 13.3564 33.3047C12.7532 32.736 12.4516 31.9168 12.4516 30.8469C12.4516 29.7554 12.7532 28.9361 13.3564 28.389C13.8061 27.9255 14.4563 27.6937 15.3072 27.6937C16.1581 27.6937 16.8084 27.9255 17.2581 28.389C17.8585 28.9361 18.1588 29.7554 18.1588 30.8469C18.1588 31.9168 17.8585 32.736 17.2581 33.3047C16.8084 33.7682 16.1581 34 15.3072 34ZM16.4826 32.3992C16.7707 32.0353 16.9148 31.5179 16.9148 30.8469C16.9148 30.1785 16.7694 29.6624 16.4785 29.2986C16.1904 28.9321 15.8 28.7488 15.3072 28.7488C14.8145 28.7488 14.4213 28.9307 14.1278 29.2945C13.8343 29.6584 13.6876 30.1758 13.6876 30.8469C13.6876 31.5179 13.8343 32.0353 14.1278 32.3992C14.4213 32.763 14.8145 32.9449 15.3072 32.9449C15.8 32.9449 16.1918 32.763 16.4826 32.3992Z" fill="black"/>
<path d="M22.9415 27.8756V28.9307H21.1603V33.8343H19.9082V28.9307H18.1189V27.8756H22.9415Z" fill="black"/>
<path d="M23.0793 27.8756H24.3152V33.8343H23.0793V27.8756Z" fill="black"/>
<path d="M27.6156 34C26.7647 34 26.1144 33.7682 25.6648 33.3047C25.0616 32.736 24.76 31.9168 24.76 30.8469C24.76 29.7554 25.0616 28.9361 25.6648 28.389C26.1144 27.9255 26.7647 27.6937 27.6156 27.6937C28.4665 27.6937 29.1168 27.9255 29.5665 28.389C30.1669 28.9361 30.4672 29.7554 30.4672 30.8469C30.4672 31.9168 30.1669 32.736 29.5665 33.3047C29.1168 33.7682 28.4665 34 27.6156 34ZM28.791 32.3992C29.0791 32.0353 29.2231 31.5179 29.2231 30.8469C29.2231 30.1785 29.0777 29.6624 28.7869 29.2986C28.4988 28.9321 28.1084 28.7488 27.6156 28.7488C27.1228 28.7488 26.7297 28.9307 26.4362 29.2945C26.1427 29.6584 25.996 30.1758 25.996 30.8469C25.996 31.5179 26.1427 32.0353 26.4362 32.3992C26.7297 32.763 27.1228 32.9449 27.6156 32.9449C28.1084 32.9449 28.5002 32.763 28.791 32.3992Z" fill="black"/>
<path d="M35.7386 33.8343H34.4946L32.0631 29.6018V33.8343H30.9039V27.8756H32.2085L34.5794 32.0354V27.8756H35.7386V33.8343Z" fill="black"/>
<path d="M38.5664 32.9732C38.8599 32.9732 39.0982 32.9409 39.2813 32.8762C39.6287 32.7522 39.8023 32.5218 39.8023 32.1849C39.8023 31.9882 39.7162 31.8359 39.5438 31.7281C39.3715 31.623 39.1009 31.53 38.732 31.4492L38.1019 31.3077C37.4826 31.1676 37.0545 31.0153 36.8175 30.8509C36.4163 30.576 36.2157 30.1462 36.2157 29.5613C36.2157 29.0277 36.4096 28.5844 36.7973 28.2314C37.185 27.8783 37.7546 27.7018 38.5058 27.7018C39.1332 27.7018 39.6677 27.8689 40.1093 28.2031C40.5536 28.5346 40.7865 29.017 40.8081 29.6503H39.6125C39.591 29.2919 39.4348 29.0372 39.144 28.8863C38.9501 28.7865 38.7091 28.7367 38.421 28.7367C38.1006 28.7367 37.8448 28.8014 37.6536 28.9307C37.4624 29.0601 37.3668 29.2406 37.3668 29.4724C37.3668 29.6853 37.461 29.8443 37.6495 29.9494C37.7707 30.0195 38.0292 30.1017 38.425 30.196L39.4509 30.4426C39.9006 30.5504 40.2399 30.6946 40.4688 30.8752C40.8242 31.1554 41.0019 31.561 41.0019 32.0919C41.0019 32.6363 40.7933 33.0891 40.3759 33.4502C39.9612 33.8087 39.3742 33.9879 38.6149 33.9879C37.8394 33.9879 37.2295 33.8113 36.7852 33.4583C36.3409 33.1026 36.1187 32.6148 36.1187 31.9949H37.3062C37.3439 32.2671 37.418 32.4706 37.5284 32.6053C37.7303 32.8506 38.0763 32.9732 38.5664 32.9732Z" fill="black"/>
<path d="M35.3706 8H41.2988V13.9333H35.3706V8Z" fill="black"/>
<path d="M73.6962 20.5728L73.6962 20.4815L73.605 20.4815L63.3571 20.4815L63.3571 10.2354L63.3571 10.1441L63.2659 10.1441L62.4149 10.1441L62.3237 10.1441L62.3237 10.2354L62.3237 20.4815L52.0758 20.4815L51.9846 20.4815L51.9846 20.5728L51.9846 21.4271L51.9846 21.5183L52.0758 21.5183L62.3237 21.5183L62.3237 31.7645L62.3237 31.8557L62.4149 31.8557L63.2659 31.8557L63.3571 31.8557L63.3571 31.7645L63.3571 21.5183L73.605 21.5183L73.6962 21.5183L73.6962 21.4271L73.6962 20.5728Z" fill="black" stroke="black" stroke-width="0.18245"/>
<path d="M163.347 0.860107H156.546V2.18771H159.207V8.37485H160.685V2.18771H163.347V0.860107Z" fill="black"/>
<path d="M173.16 0.860107H170.917L168.822 6.69656L166.703 0.860107H164.436V8.37485H165.865V2.4382L168.009 8.37485H169.586L171.73 2.4382V8.37485H173.16V0.860107Z" fill="black"/>
<path fill-rule="evenodd" clip-rule="evenodd" d="M117.435 32.7427V24.4206H97.5933V32.7427H84.3823V8.37485H97.5933V16.6969H117.435V8.37485L149.627 8.37593C157.111 8.28529 162.668 13.9053 162.607 20.5588C162.668 27.1759 157.111 32.8322 149.627 32.7416L117.435 32.7427ZM147.639 25.0185C150.397 25.0185 151.959 23.0062 151.959 20.5588C151.959 18.0932 150.397 16.099 147.639 16.099H135.997V25.0185H147.639Z" fill="black"/>
<path d="M6.86289 8H8.084L6.46496 13.9724H5.31797L4.62354 10.4797L4.42067 9.32494L4.21781 10.4797L3.52337 13.9724H2.4076L0.776855 8H2.05258L2.81334 11.4197L2.97719 12.3719L3.14495 11.44L3.79256 8H5.06049L5.74322 11.4197L5.91878 12.3719L6.09433 11.4562L6.86289 8Z" fill="black"/>
<path d="M12.2687 11.363H9.4754V12.8986H12.6589V13.9724H8.30111V8H12.5184V9.05752H9.4754V10.3257H12.2687V11.363Z" fill="black"/>
<path d="M14.2352 8.87519C14.2352 9.28307 14.139 9.60452 13.9465 9.83952C13.7566 10.0745 13.4887 10.2271 13.1428 10.2974V9.87194C13.3977 9.7882 13.5733 9.64638 13.6695 9.4465C13.7215 9.32764 13.7436 9.20744 13.7358 9.08588H13.1233V8.02026H14.2352V8.87519Z" fill="black"/>
<path d="M17.243 11.6304H16.0024V13.9724H14.8281V8H17.6487C18.0519 8.0081 18.3614 8.05943 18.5772 8.15397C18.7957 8.24851 18.9804 8.38762 19.1312 8.57131C19.2561 8.72257 19.3549 8.89005 19.4277 9.07373C19.5006 9.25741 19.537 9.46675 19.537 9.70176C19.537 9.98539 19.468 10.265 19.3302 10.5405C19.1924 10.8133 18.9648 11.0064 18.6475 11.1199C18.9128 11.2306 19.1 11.3887 19.2093 11.594C19.3211 11.7965 19.377 12.1072 19.377 12.5259V12.927C19.377 13.1998 19.3874 13.3849 19.4082 13.4821C19.4394 13.6361 19.5123 13.7495 19.6267 13.8224V13.9724H18.3042C18.2677 13.84 18.2417 13.7333 18.2261 13.6523C18.1949 13.4848 18.178 13.3133 18.1754 13.1377L18.1676 12.5826C18.1624 12.2017 18.0948 11.9478 17.9647 11.8209C17.8373 11.6939 17.5967 11.6304 17.243 11.6304ZM17.9725 10.5445C18.2118 10.4311 18.3315 10.2069 18.3315 9.87194C18.3315 9.50997 18.2157 9.26687 17.9842 9.14261C17.8542 9.07238 17.6591 9.03726 17.3991 9.03726H16.0024V10.6418H17.3639C17.6344 10.6418 17.8373 10.6094 17.9725 10.5445Z" fill="black"/>
<path d="M24.1838 11.363H21.3905V12.8986H24.574V13.9724H20.2162V8H24.4335V9.05752H21.3905V10.3257H24.1838V11.363Z" fill="black"/>
</svg>
