<svg width="90" height="33" viewBox="0 0 90 33" fill="none" xmlns="http://www.w3.org/2000/svg">
<path d="M79.7466 0H72.8779V1.36205H75.5656V7.7097H77.0588V1.36205H79.7466V0Z" fill="#212529"/>
<path d="M89.6564 0H87.3918L85.2764 5.98787L83.1362 0H80.8466V7.7097H82.29V1.61904L84.4551 7.7097H86.0479L88.213 1.61904V7.7097H89.6564V0Z" fill="#212529"/>
<path fill-rule="evenodd" clip-rule="evenodd" d="M33.3799 32.7097V24.1718H13.3418V32.7097H0V7.7097H13.3418V16.2477H33.3799V7.7097L65.8906 7.71081C73.4487 7.61782 79.061 13.3837 78.9995 20.2097C79.061 26.9985 73.4487 32.8016 65.8906 32.7086L33.3799 32.7097ZM63.8833 24.7852C66.669 24.7852 68.2461 22.7206 68.2461 20.2097C68.2461 17.6802 66.669 15.6342 63.8833 15.6342H52.1263V24.7852H63.8833Z" fill="#212529"/>
</svg>
